<?xml version="1.0" standalone="no"?>
<!DOCTYPE svg PUBLIC "-//W3C//DTD SVG 20010904//EN"
 "http://www.w3.org/TR/2001/REC-SVG-20010904/DTD/svg10.dtd">
<svg version="1.0" xmlns="http://www.w3.org/2000/svg"
 width="171.000000pt" height="139.000000pt" viewBox="0 0 171.000000 139.000000"
 preserveAspectRatio="xMidYMid meet">

<g transform="translate(0.000000,139.000000) scale(0.100000,-0.100000)"
fill="#000000" stroke="none">
<path d="M0 695 l0 -695 855 0 855 0 0 695 0 695 -855 0 -855 0 0 -695z m1100
565 c0 -9 17 -32 38 -51 110 -99 342 -427 342 -483 0 -23 -47 -54 -386 -261
-18 -11 -136 -84 -262 -162 -126 -79 -238 -143 -249 -143 -16 0 -24 14 -43 78
-42 143 -112 295 -192 414 -49 72 -55 78 -95 84 -49 7 -53 15 -21 37 19 13 20
18 9 26 -8 5 -20 7 -28 4 -7 -3 -13 0 -13 6 0 13 49 46 57 38 3 -4 -5 -10 -17
-15 -23 -9 -23 -9 9 -20 18 -7 38 -9 45 -5 6 4 1 10 -14 15 -16 5 -4 6 35 5
41 -1 59 2 58 10 -3 15 24 25 33 12 3 -5 15 -7 26 -3 14 4 18 3 13 -5 -5 -8 1
-10 18 -6 26 7 188 -22 197 -34 10 -13 89 -34 109 -28 12 3 21 1 21 -4 0 -5
12 -9 26 -9 14 0 23 4 19 9 -3 5 4 12 14 16 12 4 18 12 14 21 -3 7 -1 14 5 14
6 0 12 -5 14 -12 3 -7 7 -5 11 6 4 9 3 15 -2 12 -12 -8 -22 20 -14 39 5 14 7
14 22 1 14 -12 18 -12 31 2 13 14 13 15 -1 10 -12 -5 -15 -1 -11 18 2 13 8 21
13 18 11 -6 11 23 0 51 -7 17 -9 17 -17 3 -6 -11 -9 21 -9 93 0 87 3 110 15
115 12 4 9 9 -10 19 -33 19 -40 18 -40 -1 0 -11 -6 -13 -19 -9 -11 3 -22 1
-26 -5 -3 -5 -14 -10 -25 -10 -10 0 -20 -7 -24 -15 -3 -8 -12 -15 -21 -15 -13
0 -27 -6 -64 -27 -2 -2 2 -9 8 -17 8 -9 8 -16 2 -20 -5 -4 -16 2 -23 12 -11
16 -16 16 -38 5 -14 -7 -20 -13 -15 -13 6 0 -9 -10 -33 -21 -32 -16 -40 -24
-30 -30 11 -7 10 -11 -2 -20 -11 -8 -12 -12 -2 -16 6 -2 12 -9 12 -14 0 -6 -9
-5 -21 2 -14 7 -19 17 -16 30 7 26 -12 13 -23 -17 -5 -13 -16 -24 -24 -24 -9
0 -12 -7 -9 -19 5 -21 -25 -37 -41 -21 -16 16 -30 12 -62 -15 -16 -14 -35 -25
-41 -25 -7 0 -13 -5 -13 -11 0 -5 -5 -7 -11 -3 -6 3 9 20 38 40 26 19 56 40
67 48 10 8 25 12 34 9 10 -5 13 -2 8 6 -5 8 -3 11 7 9 9 -2 15 0 14 3 -3 10
34 49 45 49 5 0 42 19 81 43 154 93 265 140 307 130 24 -5 24 -5 5 10 -22 18
-9 22 28 8 26 -10 58 1 38 13 -6 4 -11 3 -11 -3 0 -6 -7 -8 -17 -4 -14 6 -13
8 6 24 30 25 141 23 141 -1z m-240 -156 c0 -35 -3 -42 -12 -33 -18 16 -19 89
-1 82 8 -3 13 -22 13 -49z m-185 -24 c3 -5 1 -10 -4 -10 -6 0 -11 5 -11 10 0
6 2 10 4 10 3 0 8 -4 11 -10z m20 -30 c-4 -7 2 -9 18 -5 29 8 62 -7 77 -34 8
-16 5 -20 -15 -23 -15 -3 -30 1 -37 10 -10 13 -10 14 0 8 6 -4 12 -3 12 3 0 6
-12 13 -27 17 -47 10 -54 14 -48 24 3 5 11 10 16 10 6 0 7 -5 4 -10z m182
-102 c-3 -7 -5 -2 -5 12 0 14 2 19 5 13 2 -7 2 -19 0 -25z m-400 -64 c-3 -3
-12 -4 -19 -1 -8 3 -5 6 6 6 11 1 17 -2 13 -5z m101 -33 c9 -5 4 -8 -16 -7
-17 1 -28 4 -25 9 6 9 25 9 41 -2z m86 -19 c2 -4 -11 -6 -30 -4 -19 2 -34 6
-34 8 0 8 59 4 64 -4z"/>
<path d="M946 1173 c-8 -8 -8 -68 0 -76 11 -10 30 16 32 45 1 24 -19 44 -32
31z"/>
<path d="M1074 1153 c-14 -66 -76 -288 -89 -317 -7 -17 -21 -51 -31 -75 -10
-24 -30 -56 -45 -72 -26 -28 -31 -29 -116 -29 -81 0 -376 35 -395 46 -17 11
-7 -22 22 -66 36 -55 123 -239 140 -295 6 -22 19 -59 27 -82 l15 -41 62 37
c60 37 759 472 763 476 5 3 -167 257 -205 305 -54 67 -124 140 -133 140 -5 0
-11 -12 -15 -27z"/>
<path d="M477 820 c9 -9 88 -22 80 -13 -4 3 -25 9 -47 13 -23 4 -38 4 -33 0z"/>
<path d="M518 773 c7 -3 16 -2 19 1 4 3 -2 6 -13 5 -11 0 -14 -3 -6 -6z"/>
<path d="M565 770 c11 -5 27 -9 35 -9 13 -1 13 0 0 9 -8 5 -24 9 -35 9 l-20 0
20 -9z"/>
</g>
</svg>
